<?xml version="1.0" encoding="UTF-8"?>
<svg version="1.1" xmlns="http://www.w3.org/2000/svg" width="258" height="168">
<path d="M0 0 C15.1780672 4.34748658 30.11107908 9.5700735 44.85253906 15.21240234 C46.31872406 15.75013686 47.8016954 16.24364584 49.29589844 16.69775391 C51.4921875 17.39453125 51.4921875 17.39453125 55 19 C56.41542187 22.91788099 55.81746406 25.43612506 54.375 29.25390625 C54.00197754 30.26219482 53.62895508 31.2704834 53.24462891 32.30932617 C52.83390137 33.38287354 52.42317383 34.4564209 52 35.5625 C51.15280376 37.84083289 50.30645822 40.11948228 49.4609375 42.3984375 C48.82816895 44.08791504 48.82816895 44.08791504 48.18261719 45.81152344 C46.59871967 50.0818995 45.10652212 54.38080257 43.625 58.6875 C40.23371927 68.46576022 36.66140863 78.1777088 33.06054688 87.88037109 C30.91756062 93.66866223 28.81734755 99.45965471 26.9140625 105.33203125 C26.60662109 106.26853516 26.29917969 107.20503906 25.98242188 108.16992188 C25.42661501 109.88292116 24.88773553 111.60154231 24.36914062 113.32617188 C23.6328125 115.58203125 23.6328125 115.58203125 22 119 C18.05485177 120.41846565 15.50881523 119.80255165 11.65893555 118.36938477 C10.6182341 117.98891495 9.57753265 117.60844513 8.5052948 117.21644592 C7.3936647 116.79568283 6.28203461 116.37491974 5.13671875 115.94140625 C3.98959915 115.51826645 2.84247955 115.09512665 1.66059875 114.65916443 C-2.00154215 113.30525312 -5.65696539 111.9341355 -9.3125 110.5625 C-11.79449889 109.64143751 -14.27691619 108.72150165 -16.75976562 107.80273438 C-22.84475884 105.54820598 -28.92432719 103.27951795 -35 101 C-34.40567092 94.38721494 -32.24556063 88.54539358 -29.984375 82.33203125 C-29.57655289 81.19494217 -29.16873077 80.05785309 -28.74855042 78.88630676 C-27.6488883 75.82428595 -26.54339212 72.7644546 -25.43503189 69.70557404 C-24.29080241 66.54351523 -23.15396557 63.37880104 -22.01635742 60.21435547 C-19.76593183 53.95805224 -17.50712131 47.70481015 -15.24676514 41.4520874 C-13.43099322 36.42451391 -11.6235598 31.39395742 -9.81640625 26.36328125 C-8.64907398 23.11695824 -7.48102368 19.87089433 -6.3125 16.625 C-6.04119263 15.87110992 -5.76988525 15.11721985 -5.49035645 14.34048462 C-4.74107813 12.26033021 -3.99004044 10.18082141 -3.23828125 8.1015625 C-2.82618408 6.96025879 -2.41408691 5.81895508 -1.98950195 4.64306641 C-1 2 -1 2 0 0 Z " fill="#FEFEFE" transform="translate(129,3)"/>
<path d="M0 0 C4.33743213 1.34811289 8.29699642 3.02437249 12.35668945 5.05688477 C12.96068069 5.35793121 13.56467194 5.65897766 14.18696594 5.96914673 C16.16437517 6.95601272 18.1388638 7.94856999 20.11328125 8.94140625 C21.4922194 9.63147188 22.87130598 10.32124096 24.25053406 11.01072693 C27.13059148 12.45153529 30.00929049 13.89501036 32.88696289 15.34057617 C36.58169017 17.19646948 40.27905694 19.04702921 43.9773531 20.89579868 C46.82020653 22.31736104 49.66201474 23.7410018 52.50346947 25.16535759 C53.8672394 25.84883644 55.23125412 26.53182708 56.5955143 27.21432686 C58.49478826 28.16504304 60.39272401 29.11837664 62.2902832 30.07250977 C63.3713887 30.61496841 64.4524942 31.15742706 65.56636047 31.71632385 C68 33 68 33 69 34 C69.07226502 35.85287502 69.0838122 37.70833878 69.0625 39.5625 C69.05347656 40.57441406 69.04445313 41.58632812 69.03515625 42.62890625 C69.02355469 43.41136719 69.01195312 44.19382813 69 45 C54.75960315 51.64208477 40.42535516 58.06440722 26.04415894 64.39483643 C24.18197206 65.21468759 22.32025647 66.03561004 20.45901489 66.85760498 C17.81269551 68.02565064 15.16447692 69.18927342 12.515625 70.3515625 C11.71549484 70.70526917 10.91536469 71.05897583 10.09098816 71.42340088 C8.97522148 71.91111969 8.97522148 71.91111969 7.83691406 72.40869141 C6.86628021 72.83524521 6.86628021 72.83524521 5.8760376 73.27041626 C3.924375 74.02941027 2.05988955 74.61796543 0 75 C-1 74 -1 74 -1.09765625 70.40234375 C-1.0909822 68.91403133 -1.07902183 67.42573568 -1.0625 65.9375 C-1.05798828 65.17888672 -1.05347656 64.42027344 -1.04882812 63.63867188 C-1.0370068 61.75908129 -1.01907078 59.87953101 -1 58 C4.53385385 55.15621399 10.10082393 52.63964282 15.875 50.328125 C16.68493408 50.00084412 17.49486816 49.67356323 18.3293457 49.33636475 C20.88499626 48.30448409 23.44245232 47.27716827 26 46.25 C27.74621579 45.5458755 29.49231072 44.84145119 31.23828125 44.13671875 C35.49079929 42.42101285 39.74494138 40.70939482 44 39 C36.17005959 35.03008848 28.33298927 31.0949578 20.34765625 27.4453125 C19.74206879 27.16822449 19.13648132 26.89113647 18.51254272 26.60565186 C16.06357242 25.4877319 13.6129291 24.37355811 11.15942383 23.265625 C9.32381875 22.43522661 7.49191377 21.59666402 5.66015625 20.7578125 C4.59418213 20.2745752 3.52820801 19.79133789 2.42993164 19.29345703 C0 18 0 18 -1 16 C-1.09773002 13.4676428 -1.13910387 10.96914408 -1.125 8.4375 C-1.12886719 7.73947266 -1.13273438 7.04144531 -1.13671875 6.32226562 C-1.12663994 1.12663994 -1.12663994 1.12663994 0 0 Z " fill="#FDFDFD" transform="translate(189,51)"/>
<path d="M0 0 C-0.33 5.61 -0.66 11.22 -1 17 C-2.23153809 17.56509277 -3.46307617 18.13018555 -4.73193359 18.71240234 C-9.29242785 20.80640499 -13.85022686 22.90621717 -18.40722656 25.0078125 C-20.38142821 25.91728348 -22.35636118 26.82516865 -24.33203125 27.73144531 C-27.16859746 29.03296214 -30.00250091 30.34012411 -32.8359375 31.6484375 C-34.16569107 32.25635635 -34.16569107 32.25635635 -35.52230835 32.8765564 C-36.34300812 33.25679962 -37.16370789 33.63704285 -38.00927734 34.02880859 C-38.73319672 34.36190033 -39.45711609 34.69499207 -40.20297241 35.03817749 C-42.1754089 35.98224224 -42.1754089 35.98224224 -44 38 C-37.74931304 40.97623838 -31.42558483 43.65349079 -24.9609375 46.12109375 C-23.54279875 46.66948247 -22.12483174 47.21831549 -20.70703125 47.76757812 C-18.52330518 48.61339449 -16.33792896 49.45129114 -14.14306641 50.26782227 C-11.9897694 51.07181149 -9.85025885 51.90574187 -7.7109375 52.74609375 C-6.72049942 53.10265297 -6.72049942 53.10265297 -5.71005249 53.46641541 C-3.87646484 54.20483398 -3.87646484 54.20483398 -1 56 C-0.08666992 59.01635742 -0.08666992 59.01635742 0 62 C0.03222656 62.98742187 0.06445312 63.97484375 0.09765625 64.9921875 C0.08605469 65.94351563 0.07445313 66.89484375 0.0625 67.875 C0.05347656 68.84179688 0.04445313 69.80859375 0.03515625 70.8046875 C0.02355469 71.52914062 0.01195313 72.25359375 0 73 C-4.23365633 74.41121878 -6.81135425 72.58584323 -10.65625 70.80078125 C-11.42326233 70.45411911 -12.19027466 70.10745697 -12.98052979 69.75028992 C-15.49116926 68.61325877 -17.99546781 67.46291282 -20.5 66.3125 C-22.21991828 65.53088952 -23.94029862 64.75029501 -25.66113281 63.97070312 C-29.12544992 62.40046507 -32.58778835 60.82598272 -36.04882812 59.24853516 C-42.92812769 56.11805803 -49.83794884 53.05729022 -56.75 50 C-58.9117059 49.04222522 -61.07318973 48.08394897 -63.234375 47.125 C-64.11319336 46.73570313 -64.99201172 46.34640625 -65.89746094 45.9453125 C-67.27782209 45.32469495 -68.64631967 44.67684017 -70 44 C-70 40.37 -70 36.74 -70 33 C-56.48767791 25.82006902 -42.89417723 18.8107458 -29.22363281 11.93676758 C-27.04378052 10.83842183 -24.86609737 9.73576212 -22.69042969 8.62915039 C-19.50668204 7.01012357 -16.31671771 5.40402658 -13.125 3.80078125 C-12.15014648 3.30201981 -11.17529297 2.80325836 -10.17089844 2.28938293 C-9.27145508 1.84108627 -8.37201172 1.39278961 -7.4453125 0.9309082 C-6.26219482 0.33328423 -6.26219482 0.33328423 -5.05517578 -0.27641296 C-3 -1 -3 -1 0 0 Z " fill="#FDFDFD" transform="translate(70,52)"/>
<path d="M0 0 C3.55551788 0.63784451 6.84648766 1.5584311 10.24926758 2.76586914 C11.26994827 3.12616714 12.29062897 3.48646515 13.34223938 3.85768127 C14.4319957 4.24624802 15.52175201 4.63481476 16.64453125 5.03515625 C17.7694548 5.43327011 18.89437836 5.83138397 20.0533905 6.24156189 C23.64090057 7.51201735 27.22671124 8.78719536 30.8125 10.0625 C33.24663425 10.92544209 35.68087777 11.788076 38.11523438 12.65039062 C44.07809495 14.76335444 50.03956772 16.88019659 56 19 C54.22155326 22.90644142 52.08717536 24.78308501 48.6875 27.4375 C44.86434323 30.43656568 41.42333141 33.5554715 38 37 C35.99415221 38.75276095 33.98165762 40.4811402 31.9375 42.1875 C31.37820801 42.65583252 30.81891602 43.12416504 30.24267578 43.60668945 C29.07914329 44.58087426 27.9150765 45.55442126 26.75048828 46.52734375 C25.01862283 47.98433292 23.30265607 49.45818539 21.58984375 50.9375 C20.51825782 51.85420017 19.44664437 52.77086815 18.375 53.6875 C17.41335937 54.51636719 16.45171875 55.34523437 15.4609375 56.19921875 C13 58 13 58 10 58 C8.51199914 51.49754377 7.2233018 44.98478636 6.0546875 38.41796875 C5.87994904 37.44136795 5.70521057 36.46476715 5.525177 35.45857239 C5.15950235 33.41079229 4.79484115 31.36283098 4.43115234 29.31469727 C3.87339641 26.17848313 3.30988401 23.04333739 2.74609375 19.90820312 C2.39027472 17.91152072 2.03479399 15.914778 1.6796875 13.91796875 C1.51097137 12.98252731 1.34225525 12.04708588 1.16842651 11.08329773 C1.01471588 10.21171524 0.86100525 9.34013275 0.70263672 8.44213867 C0.56654999 7.6787468 0.43046326 6.91535492 0.29025269 6.12882996 C0 4 0 4 0 0 Z " fill="#FDFEFE" transform="translate(91,110)"/>
</svg>
